<?xml version="1.0" standalone="no"?>
<!DOCTYPE svg PUBLIC "-//W3C//DTD SVG 20010904//EN"
 "http://www.w3.org/TR/2001/REC-SVG-20010904/DTD/svg10.dtd">
<svg version="1.0" xmlns="http://www.w3.org/2000/svg"
 width="139.000000pt" height="139.000000pt" viewBox="0 0 139.000000 139.000000"
 preserveAspectRatio="xMidYMid meet">
<metadata>
Created by potrace 1.11, written by Peter Selinger 2001-2013
</metadata>
<g transform="translate(0.000000,139.000000) scale(0.100000,-0.100000)"
fill="#000000" stroke="none">
<path d="M671 1379 c-243 -29 -472 -197 -566 -414 -53 -122 -69 -298 -39 -426
70 -299 363 -529 678 -532 50 -1 112 2 137 5 60 8 195 54 237 80 l32 20 -2
231 -3 232 -155 1 c-85 0 -160 -3 -166 -7 -5 -5 -10 -42 -9 -86 l1 -78 49 1
c43 1 47 0 31 -12 -25 -18 -94 -27 -164 -22 -116 8 -225 85 -279 196 -74 152
-1 337 165 419 49 24 69 28 142 28 98 0 157 -19 227 -72 l46 -35 58 58 59 59
-37 32 c-52 44 -157 98 -221 113 -177 41 -363 -11 -490 -137 -194 -193 -193
-484 2 -679 64 -64 122 -98 216 -129 94 -31 252 -22 350 19 11 5 16 1 16 -14
0 -17 -13 -25 -69 -42 -90 -27 -239 -22 -336 11 -218 75 -364 273 -363 495 0
100 19 171 69 253 100 165 254 258 443 270 147 9 266 -27 386 -118 l62 -47 57
58 56 57 -50 45 c-83 75 -235 145 -353 163 -64 10 -150 11 -217 4z m249 -69
c102 -22 280 -118 280 -151 0 -25 -35 -18 -87 17 -31 21 -96 51 -143 68 -75
26 -99 30 -200 30 -94 1 -128 -4 -185 -22 -93 -31 -193 -91 -259 -156 -53 -53
-126 -164 -126 -191 0 -8 -4 -16 -8 -19 -5 -3 -14 -30 -21 -61 -68 -303 110
-595 423 -693 34 -11 90 -16 171 -16 101 -1 132 3 193 23 40 13 75 28 78 32 7
11 8 158 2 165 -3 3 -32 -8 -64 -25 -176 -88 -386 -56 -527 82 -148 144 -173
361 -60 530 127 190 370 257 578 158 33 -16 69 -36 80 -44 18 -15 19 -17 4
-32 -15 -15 -20 -14 -72 15 -68 38 -105 50 -183 57 -68 6 -158 -13 -225 -48
-84 -43 -175 -160 -195 -251 -21 -97 7 -224 65 -305 99 -137 295 -196 462
-140 87 29 139 69 139 105 l0 27 -83 0 c-81 0 -82 0 -82 25 l0 25 108 1 107 2
0 -189 0 -189 -37 -16 c-134 -58 -295 -76 -425 -49 -150 32 -298 124 -388 240
-87 112 -131 243 -131 384 1 263 164 488 427 587 38 14 89 28 114 31 25 3 47
7 49 9 7 6 169 -5 221 -16z"/>
<path d="M817 763 c-2 -5 -3 -42 -3 -83 l1 -75 183 -3 182 -2 0 -236 0 -236
38 28 c20 15 58 50 84 78 l48 51 0 243 0 242 -264 0 c-146 0 -267 -3 -269 -7z
m461 -52 c9 -1 12 -49 12 -203 0 -184 -2 -205 -20 -228 -10 -14 -21 -22 -25
-19 -3 4 -6 95 -7 203 l0 196 -184 0 c-152 0 -184 2 -184 14 0 40 4 41 203 40
105 -1 198 -2 205 -3z"/>
</g>
</svg>
